<svg width="110" height="21" viewBox="0 0 110 21" fill="none" xmlns="http://www.w3.org/2000/svg">
<path d="M25.616 8.428L25.556 11.32H27.452L27.548 10.456C27.772 10.456 28.012 10.524 28.268 10.66V12.94L27.848 12.976C27.728 12.632 27.648 12.344 27.608 12.112H25.556C25.54 12.808 25.524 13.836 25.508 15.196H28.256L28.544 14.068L29.24 14.116C29.352 14.572 29.408 14.976 29.408 15.328C29.408 15.672 29.4 15.896 29.384 16H23.552L23.516 15.58C23.868 15.452 24.208 15.36 24.536 15.304C24.488 12.184 24.448 9.864 24.416 8.344C24.24 8.328 23.888 8.232 23.36 8.056L23.42 7.6H29.204C29.22 7.704 29.228 7.864 29.228 8.08C29.228 8.52 29.172 8.996 29.06 9.508C28.884 9.548 28.652 9.568 28.364 9.568L28.076 8.428H25.616Z" fill="#33CC99"/>
<path d="M32.0687 7.852C32.2127 7.804 32.6047 7.752 33.2447 7.696C33.8847 7.632 34.4647 7.6 34.9847 7.6C35.5127 7.6 35.9207 7.624 36.2087 7.672C36.2167 7.704 36.2207 7.744 36.2207 7.792C36.2207 7.832 36.1967 7.932 36.1487 8.092C36.1087 8.252 36.0767 8.356 36.0527 8.404C35.9887 8.468 35.8087 8.516 35.5127 8.548L37.8047 15.184L38.9447 15.28C38.9447 15.504 38.8767 15.744 38.7407 16H35.9807L35.9447 15.58C36.1287 15.484 36.3967 15.4 36.7487 15.328L36.1367 13.612H32.7887L32.2247 15.184L33.1967 15.28C33.1967 15.504 33.1287 15.744 32.9927 16H30.2327L30.1967 15.58C30.5087 15.468 30.8407 15.38 31.1927 15.316L33.5207 8.512C32.8087 8.432 32.3087 8.336 32.0207 8.224L32.0687 7.852ZM35.1887 10.936L34.5527 8.584C34.5047 8.576 34.4367 8.572 34.3487 8.572L33.7007 11.02L33.0047 12.844H35.9207L35.1887 10.936ZM42.4398 15.196C43.6318 15.196 44.2278 14.712 44.2278 13.744C44.2278 13.272 43.9358 12.872 43.3518 12.544C43.0878 12.392 42.7958 12.248 42.4758 12.112C42.1638 11.976 41.8478 11.828 41.5278 11.668C41.2078 11.508 40.9158 11.336 40.6518 11.152C40.3958 10.968 40.1838 10.736 40.0158 10.456C39.8558 10.176 39.7758 9.86 39.7758 9.508C39.7758 8.932 40.0078 8.444 40.4718 8.044C40.9438 7.636 41.5878 7.432 42.4038 7.432C43.2198 7.432 44.0798 7.68 44.9838 8.176C44.9838 8.632 44.9278 9.204 44.8158 9.892C44.6398 9.916 44.4078 9.928 44.1198 9.928L43.7598 8.536C43.6638 8.488 43.4718 8.44 43.1838 8.392C42.9038 8.344 42.6558 8.32 42.4398 8.32C41.9758 8.32 41.6158 8.42 41.3598 8.62C41.1038 8.812 40.9758 9.084 40.9758 9.436C40.9758 9.78 41.1238 10.092 41.4198 10.372C41.7238 10.644 42.0878 10.88 42.5118 11.08C42.9438 11.272 43.3718 11.472 43.7958 11.68C44.2278 11.888 44.5918 12.16 44.8878 12.496C45.1918 12.824 45.3438 13.208 45.3438 13.648C45.3438 14.448 45.0758 15.068 44.5398 15.508C44.0038 15.94 43.3038 16.156 42.4398 16.156C41.9678 16.156 41.4558 16.084 40.9038 15.94C40.3598 15.788 39.9078 15.596 39.5478 15.364C39.5638 14.828 39.6238 14.208 39.7278 13.504C39.9038 13.48 40.1358 13.468 40.4238 13.468L40.6758 14.908C40.8518 14.98 41.1158 15.048 41.4678 15.112C41.8278 15.168 42.1518 15.196 42.4398 15.196ZM50.5427 13L50.4947 15.184L51.5027 15.28C51.5027 15.52 51.4387 15.76 51.3107 16H48.5387L48.5027 15.58C48.9907 15.412 49.3587 15.316 49.6067 15.292C49.5987 14.796 49.5787 14.032 49.5467 13L47.0267 8.308C46.7067 8.244 46.3467 8.148 45.9467 8.02L45.9827 7.6H49.1027C49.2387 7.856 49.3067 8.096 49.3067 8.32C48.9147 8.344 48.5547 8.368 48.2267 8.392L50.0147 12.028H50.1467L51.9347 8.308C51.6147 8.26 51.2387 8.164 50.8067 8.02L50.8427 7.6H53.7467C53.8827 7.856 53.9507 8.096 53.9507 8.32C53.5987 8.344 53.2587 8.368 52.9307 8.392L50.5427 13ZM63.1398 8.428L64.3998 15.184L65.4918 15.292C65.4918 15.508 65.4238 15.744 65.2878 16H62.5278L62.4918 15.58C62.7318 15.476 63.0278 15.392 63.3798 15.328L62.0958 8.596L60.5118 15.424H59.3238L57.1398 8.572L56.1678 15.184L57.1878 15.28C57.1878 15.504 57.1198 15.744 56.9838 16H54.2238L54.1878 15.58C54.5398 15.452 54.8918 15.356 55.2438 15.292L56.2998 8.332C55.8118 8.26 55.4238 8.176 55.1358 8.08L55.1838 7.6H57.9798L59.8878 14.176H59.9358L61.4238 7.6H64.0998C64.2358 7.856 64.3038 8.104 64.3038 8.344C63.7838 8.4 63.3958 8.428 63.1398 8.428ZM68.284 8.428L68.224 11.32H70.12L70.216 10.456C70.44 10.456 70.68 10.524 70.936 10.66V12.94L70.516 12.976C70.396 12.632 70.316 12.344 70.276 12.112H68.224C68.208 12.808 68.192 13.836 68.176 15.196H70.924L71.212 14.068L71.908 14.116C72.02 14.572 72.076 14.976 72.076 15.328C72.076 15.672 72.068 15.896 72.052 16H66.22L66.184 15.58C66.536 15.452 66.876 15.36 67.204 15.304C67.156 12.184 67.116 9.864 67.084 8.344C66.908 8.328 66.556 8.232 66.028 8.056L66.088 7.6H71.872C71.888 7.704 71.896 7.864 71.896 8.08C71.896 8.52 71.84 8.996 71.728 9.508C71.552 9.548 71.32 9.568 71.032 9.568L70.744 8.428H68.284ZM75.4207 9.088L75.3007 15.184L76.3087 15.28C76.3087 15.504 76.2407 15.744 76.1047 16H73.3447L73.3087 15.58C73.7407 15.436 74.1087 15.34 74.4127 15.292C74.3967 14.772 74.3687 13.7 74.3287 12.076C74.2967 10.452 74.2687 9.196 74.2447 8.308C73.9407 8.26 73.5807 8.164 73.1647 8.02L73.2007 7.6H75.5767L79.9567 14.596L79.7527 8.308C79.4567 8.252 79.1007 8.156 78.6847 8.02L78.7207 7.6H81.7207C81.8567 7.856 81.9247 8.096 81.9247 8.32C81.5247 8.352 81.2047 8.368 80.9647 8.368L80.8447 16H79.6807L75.4207 9.088ZM86.8826 16.144C86.4266 16.144 86.0306 16.108 85.6946 16.036C85.3586 15.964 85.0346 15.832 84.7226 15.64C84.0746 15.256 83.7386 14.492 83.7146 13.348C83.6986 12.204 83.6586 10.524 83.5946 8.308C83.2746 8.244 82.9146 8.148 82.5146 8.02L82.5506 7.6H85.5626C85.6986 7.856 85.7666 8.096 85.7666 8.32C85.5346 8.336 85.2026 8.352 84.7706 8.368C84.7546 9.296 84.7466 10.688 84.7466 12.544C84.7466 13.544 84.9306 14.24 85.2986 14.632C85.6746 15.024 86.2066 15.22 86.8946 15.22C87.1906 15.22 87.4466 15.188 87.6626 15.124C87.8866 15.06 88.1066 14.936 88.3226 14.752C88.7546 14.384 88.9706 13.64 88.9706 12.52C88.9706 12.512 88.9346 11.128 88.8626 8.368C88.2386 8.184 87.8786 8.068 87.7826 8.02L87.8186 7.6H90.7946C90.9226 7.928 90.9866 8.164 90.9866 8.308C90.4826 8.308 90.1586 8.312 90.0146 8.32C89.9986 8.96 89.9786 9.868 89.9546 11.044C89.9386 12.212 89.9266 12.98 89.9186 13.348C89.8946 14.26 89.6146 14.956 89.0786 15.436C88.5426 15.908 87.8106 16.144 86.8826 16.144ZM93.1454 15.964C92.9374 16.012 92.7334 16.036 92.5334 16.036C92.3414 16.036 92.1494 16.024 91.9574 16C91.9094 15.776 91.8854 15.552 91.8854 15.328C91.8854 15.096 91.8934 14.924 91.9094 14.812C92.0854 14.772 92.2694 14.752 92.4614 14.752C92.6614 14.752 92.8734 14.76 93.0974 14.776C93.1454 14.984 93.1694 15.188 93.1694 15.388C93.1694 15.58 93.1614 15.772 93.1454 15.964ZM96.3135 13.42L96.2775 15.184L97.2855 15.28C97.2855 15.504 97.2175 15.744 97.0815 16H94.3215L94.2855 15.58C94.6615 15.452 95.0295 15.356 95.3895 15.292C95.3095 12.188 95.2455 9.86 95.1975 8.308C94.9015 8.252 94.5455 8.156 94.1295 8.02L94.1655 7.6H97.1655C97.3015 7.856 97.3695 8.096 97.3695 8.32C96.9695 8.352 96.6495 8.368 96.4095 8.368C96.3935 9.2 96.3775 9.952 96.3615 10.624C96.3535 11.296 96.3455 11.768 96.3375 12.04L99.2055 8.416L98.2455 8.32C98.2455 8.096 98.3135 7.856 98.4495 7.6H101.498L101.534 8.128C101.166 8.256 100.806 8.352 100.454 8.416L98.0895 11.26L100.85 15.184L101.858 15.28C101.858 15.504 101.79 15.744 101.654 16H100.154L97.4295 12.076L96.3135 13.42ZM102.99 8.032C102.99 7.936 102.998 7.792 103.014 7.6H108.474C108.618 7.784 108.71 8.028 108.75 8.332L104.07 15.196H107.574L107.862 13.828C108.118 13.828 108.326 13.852 108.486 13.9C108.614 14.468 108.678 14.936 108.678 15.304C108.678 15.672 108.67 15.904 108.654 16H102.894C102.75 15.816 102.658 15.572 102.618 15.268L107.286 8.416H104.13L103.818 9.796C103.538 9.796 103.33 9.768 103.194 9.712C103.058 9.128 102.99 8.568 102.99 8.032Z" fill="#45484C"/>
<path d="M15.8894 6.72241C14.8517 6.62398 13.894 6.8106 13.2029 7.18794C13.529 7.60425 13.7381 8.2564 13.7381 8.99058C13.7381 9.58941 13.5987 10.1329 13.371 10.5389C13.9514 10.8855 14.6938 11.1295 15.5162 11.2075C17.4993 11.3961 19.1912 10.543 19.2937 9.30435C19.3962 8.06568 17.8725 6.91109 15.8894 6.72241Z" fill="#FFB89A"/>
<path d="M1.37817 10.1309L1.39868 10.7666C1.4438 12.155 1.93599 13.5064 2.82603 14.6713C3.67915 15.789 4.8686 16.7057 6.26929 17.323C6.58101 17.4604 6.94399 17.3188 7.07935 17.0071C7.21675 16.6954 7.07524 16.3324 6.76352 16.1971C5.55356 15.6639 4.53022 14.8784 3.8022 13.9248C3.20747 13.1455 2.82808 12.2698 2.68657 11.3613H18.3258C18.1823 12.2801 17.7967 13.164 17.1897 13.9515C16.4494 14.9112 15.4096 15.6987 14.1791 16.2258C13.8674 16.3591 13.7239 16.7221 13.8572 17.0338C13.9577 17.2676 14.1833 17.407 14.4232 17.407C14.5052 17.407 14.5873 17.3906 14.6652 17.3578C17.6286 16.0822 19.5255 13.5577 19.6137 10.7666L19.6342 10.1309H1.37817Z" fill="#45484C"/>
<path d="M12.1385 16.4083H8.87778C8.15591 16.4083 7.56323 16.999 7.56323 17.7229C7.56323 18.4468 8.15386 19.0374 8.87778 19.0374H12.1385C12.8604 19.0374 13.4531 18.4468 13.4531 17.7229C13.4531 16.999 12.8604 16.4083 12.1385 16.4083ZM12.1385 17.8049H8.87778C8.83472 17.8049 8.7937 17.7639 8.7937 17.7208C8.7937 17.6778 8.83472 17.6367 8.87778 17.6367H12.1385C12.1816 17.6367 12.2226 17.6778 12.2226 17.7208C12.2226 17.7639 12.1816 17.8049 12.1385 17.8049Z" fill="#45484C"/>
<path d="M10.215 7.65969C10.0182 7.38284 9.63262 7.31926 9.35576 7.51819C9.07891 7.71506 9.01533 8.10061 9.21426 8.37747C9.43574 8.68713 9.55469 9.05422 9.55469 9.43772C9.55469 9.77815 9.82949 10.053 10.1699 10.053C10.5104 10.053 10.7852 9.77815 10.7852 9.43772C10.7852 8.79377 10.5883 8.17854 10.215 7.65969ZM8.86768 6.59944C8.50469 6.45383 8.12324 6.38 7.72949 6.38C6.04375 6.38 4.67383 7.74993 4.67383 9.43567C4.67383 9.7761 4.94863 10.0509 5.28906 10.0509C5.62949 10.0509 5.9043 9.7761 5.9043 9.43567C5.9043 8.42874 6.72256 7.61047 7.72949 7.61047C7.96533 7.61047 8.19297 7.65354 8.4083 7.74172C8.72412 7.86887 9.08096 7.71506 9.20811 7.39924C9.33525 7.08342 9.1835 6.72454 8.86768 6.59944Z" fill="#33CC99"/>
<path d="M11.267 5.63348C10.3093 4.69833 9.05827 4.18153 7.74372 4.18153C6.42917 4.18153 5.1782 4.69627 4.22048 5.63348C3.27507 6.55838 2.7029 7.80731 2.60857 9.14852C2.58396 9.4869 2.84031 9.78221 3.17868 9.80477C3.51706 9.82733 3.81238 9.57303 3.83493 9.23465C3.90671 8.19286 4.34968 7.22694 5.07976 6.51327C5.80574 5.8037 6.75115 5.412 7.74372 5.412C8.73425 5.412 9.68171 5.8037 10.4077 6.51327C11.1378 7.22694 11.5787 8.19286 11.6525 9.23465C11.6751 9.55868 11.9458 9.80682 12.2657 9.80682C12.2801 9.80682 12.2944 9.80682 12.3088 9.80477C12.6471 9.78016 12.9035 9.4869 12.8789 9.14852C12.7845 7.80731 12.2124 6.55838 11.267 5.63348ZM18.3565 7.91395C18.1207 7.5161 17.7884 7.16336 17.3701 6.86395L18.4755 5.66834C18.7051 5.41815 18.6908 5.0285 18.4406 4.79881C18.1904 4.56913 17.8008 4.58348 17.5711 4.83368L16.2381 6.27743C16.1355 6.24051 16.0309 6.20565 15.9243 6.17489L17.6141 2.91004C17.77 2.60858 17.6531 2.23739 17.3496 2.08153C17.0481 1.92567 16.6769 2.04256 16.5211 2.34608L14.6508 5.96161C14.538 5.95545 14.4231 5.95135 14.3083 5.95135C13.8592 5.95135 13.4162 6.00057 12.9896 6.09901C12.6594 6.17489 12.4523 6.50506 12.5282 6.83729C12.6041 7.16747 12.9343 7.37459 13.2665 7.29872C13.6008 7.22079 13.9514 7.18182 14.3062 7.18182C15.2004 7.18182 16.033 7.42381 16.6503 7.86473C17.206 8.26053 17.5116 8.76708 17.5116 9.29002C17.5116 9.63045 17.7864 9.90526 18.1268 9.90526C18.4673 9.90526 18.7421 9.63045 18.7421 9.29002C18.7421 8.80809 18.6129 8.34461 18.3565 7.91395Z" fill="#45484C"/>
</svg>
